<?xml version="1.0" encoding="utf-8"?>
<!-- Generator: Adobe Illustrator 23.0.3, SVG Export Plug-In . SVG Version: 6.00 Build 0)  -->
<svg version="1.1" id="Vrstva_2" xmlns="http://www.w3.org/2000/svg" xmlns:xlink="http://www.w3.org/1999/xlink" x="0px" y="0px"
	 viewBox="0 0 128 128" style="enable-background:new 0 0 128 128;" xml:space="preserve">
<style type="text/css">
	.st0{fill:#DD691B;}
</style>
<g>
	<path class="st0" d="M64,13.1c-28.1,0-50.8,22.7-50.8,50.8c0,28.1,22.7,50.8,50.8,50.8c28.1,0,50.8-22.7,50.8-50.8
		C114.8,35.8,92.1,13.1,64,13.1z M64,102.8c-21.5,0-38.9-17.4-38.9-38.9C25.1,42.4,42.5,25,64,25s38.9,17.4,38.9,38.9
		C102.9,85.4,85.5,102.8,64,102.8z"/>
	<path class="st0" d="M57.9,58.3H38.6v11.9h19.2h5.1H63c3.7,0,6.7-3,6.7-6.7v-0.1v-5.1V39.1H57.9V58.3z"/>
</g>
</svg>
