<?xml version="1.0" encoding="utf-8"?>
<!-- Generator: Adobe Illustrator 23.0.3, SVG Export Plug-In . SVG Version: 6.00 Build 0)  -->
<svg version="1.1" id="Vrstva_1" xmlns="http://www.w3.org/2000/svg" xmlns:xlink="http://www.w3.org/1999/xlink" x="0px" y="0px"
	 viewBox="0 0 128 128" style="enable-background:new 0 0 128 128;" xml:space="preserve">
<style type="text/css">
	.st0{fill:#858585;}
</style>
<path class="st0" d="M111.5,21.2c-3-1.6-6.2-2.6-9.4-3.3c-24-5-48-4.9-72-0.9c-4.8,0.8-9.4,2-13.7,4.3c-2.2,1.2-3.5,2.8-3.3,5.5
	c0.2,3.4,0.2,6.9,0,10.3c-0.3,4.3,1.6,7.1,4.7,10.1c0.3,0.3,0.7,0.6,1,0.9c10.5,9.8,21,19.6,31.5,29.4c1.1,1,1.6,2.1,1.5,3.6
	c-0.1,4.8,0,9.6,0,14.5c0,4.7,0.1,9.5-0.1,14.2c-0.1,2.5,0.9,3.7,3.3,4.2c6,1.2,11.9,1.2,17.9,0c2.4-0.5,3.4-1.5,3.3-4.1
	c-0.2-9.2,0-18.4-0.1-27.5c0-2.3,0.6-4,2.3-5.5c4.3-3.8,8.4-7.8,12.7-11.7c7.5-6.7,11.9-11.4,20.4-18.8c3.3-2.8,3.5-6.9,3.5-8.4
	c-0.1-4.7-0.2-6.3,0-11C115.2,24.2,113.8,22.5,111.5,21.2z M21.4,26.1c6.5-1.9,40.3-10.6,85.1-0.1c0,0.1,0,0.1,0,0.2
	C90.2,35.9,37.4,36.7,21.4,26.1z"/>
</svg>
