<?xml version="1.0" encoding="utf-8"?>
<!-- Generator: Adobe Illustrator 23.0.3, SVG Export Plug-In . SVG Version: 6.00 Build 0)  -->
<svg version="1.1" id="Vrstva_1" xmlns="http://www.w3.org/2000/svg" xmlns:xlink="http://www.w3.org/1999/xlink" x="0px" y="0px"
	 viewBox="0 0 128 128" style="enable-background:new 0 0 128 128;" xml:space="preserve">
<style type="text/css">
	.st0{fill:#ffffff;}
</style>
<g>
	<path class="st0" d="M20.6,66.4l-4.4-6.7l45.3-30.2c2.3-1.5,5.3-0.9,6.8,1.4l1.7,2.6L20.6,66.4z"/>
	<path class="st0" d="M108,66.4l4.4-6.7L67.1,29.5c-2.3-1.5-5.3-0.9-6.8,1.4l-1.7,2.6L108,66.4z"/>
	<path class="st0" d="M91.6,52.1V91c0,0.6-0.5,1.1-1.1,1.1H38.7c-0.6,0-1.1-0.5-1.1-1.1V52.1h-8V94c0,3.3,2.7,6,6,6h57.9
		c3.3,0,6-2.7,6-6V52.1H91.6z"/>
	<rect x="79" y="27.7" class="st0" width="12.4" height="18.8"/>
	<path class="st0" d="M74,95.6H55.2V71.4c0-1.1,0.9-2,2-2H72c1.1,0,2,0.9,2,2V95.6z"/>
</g>
</svg>
