<?xml version="1.0" encoding="UTF-8" standalone="no"?>
<!-- Generator: Adobe Illustrator 23.0.3, SVG Export Plug-In . SVG Version: 6.00 Build 0)  -->

<svg
   xmlns:dc="http://purl.org/dc/elements/1.1/"
   xmlns:cc="http://creativecommons.org/ns#"
   xmlns:rdf="http://www.w3.org/1999/02/22-rdf-syntax-ns#"
   xmlns:svg="http://www.w3.org/2000/svg"
   xmlns="http://www.w3.org/2000/svg"
   xmlns:sodipodi="http://sodipodi.sourceforge.net/DTD/sodipodi-0.dtd"
   xmlns:inkscape="http://www.inkscape.org/namespaces/inkscape"
   version="1.1"
   id="Vrstva_1"
   x="0px"
   y="0px"
   viewBox="0 0 127.33567 32"
   xml:space="preserve"
   sodipodi:docname="perun_logo-white.svg"
   width="127.33567"
   height="32"
   inkscape:version="0.92.4 (f8dce91, 2019-08-02)"><metadata
   id="metadata3987"><rdf:RDF><cc:Work
       rdf:about=""><dc:format>image/svg+xml</dc:format><dc:type
         rdf:resource="http://purl.org/dc/dcmitype/StillImage" /><dc:title></dc:title></cc:Work></rdf:RDF></metadata><defs
   id="defs3985" /><sodipodi:namedview
   pagecolor="#ffffff"
   bordercolor="#666666"
   borderopacity="1"
   objecttolerance="10"
   gridtolerance="10"
   guidetolerance="10"
   inkscape:pageopacity="0"
   inkscape:pageshadow="2"
   inkscape:window-width="1855"
   inkscape:window-height="1012"
   id="namedview3983"
   showgrid="false"
   fit-margin-top="0"
   fit-margin-left="0"
   fit-margin-right="0"
   fit-margin-bottom="0"
   inkscape:zoom="1.7355372"
   inkscape:cx="-38.079799"
   inkscape:cy="16"
   inkscape:window-x="65"
   inkscape:window-y="32"
   inkscape:window-maximized="1"
   inkscape:current-layer="Vrstva_1" />
<style
   type="text/css"
   id="style3972">
	.st0{fill:#FFFFFF;}
</style>
<path
   class="st0"
   d="m 127.22491,24.415225 h -5.20415 V 10.851211 l -4.81661,0.05536 v 13.508651 h -5.14879 l 0.0554,-16.775087 h 5.14879 v 0.608997 c 1.21799,-0.16609 2.38062,-0.276817 3.59861,-0.387543 1.49481,-0.16609 2.65744,-0.276817 3.65398,-0.276817 1.88235,0 2.82353,0.66436 2.82353,2.048443 z m -19.26643,0 h -5.14879 v -0.608997 c -1.16263,0.16609 -2.38062,0.276817 -3.59862,0.442907 -1.43944,0.16609 -2.65744,0.221453 -3.59861,0.221453 -1.88236,0 -2.82353,-0.66436 -2.82353,-2.103806 l 0.0554,-14.782007 h 5.09343 v 13.619377 l 4.87197,-0.05536 V 7.640138 h 5.14879 z M 90.90657,14.67128 h -5.09342 v -3.820069 l -4.09689,0.05536 v 13.508651 h -5.14879 l 0.0554,-16.775087 h 5.14879 v 0.608997 c 1.0519,-0.16609 2.1038,-0.276817 3.15571,-0.442907 1.27335,-0.16609 2.32526,-0.221453 3.21107,-0.221453 1.88235,0 2.82353,0.66436 2.82353,2.048443 z M 67.54325,14.449827 v -3.986159 h -4.81661 v 3.986159 z m 4.92734,7.861592 c 0,1.384083 -0.99654,2.048443 -2.93426,2.048443 h -8.91349 c -1.93772,0 -2.8789,-0.66436 -2.8789,-2.048443 V 9.688581 c 0,-1.384083 0.99654,-2.048443 2.93426,-2.048443 h 8.9135 c 1.93771,0 2.87889,0.66436 2.87889,2.048443 v 6.145329 l -1.43945,1.051903 h -8.35986 v 4.705883 h 4.81661 v -2.768167 h 4.92733 z M 49.0519,14.00692 V 6.089965 l -4.816606,0.05536 v 9.079584 h 3.211073 c 1.051903,0 1.605533,-0.387543 1.605533,-1.217993 z m 5.20416,0.99654 c 0,1.384083 -0.66436,2.32526 -1.99308,2.878893 -0.94118,0.387543 -2.43599,0.608996 -4.373707,0.608996 -0.442906,0 -1.107266,0 -1.882353,-0.05536 -0.830449,0 -1.384083,-0.05536 -1.771626,-0.05536 v 6.034602 h -5.148789 l 0.05536,-21.536332 h 5.148789 v 0.608996 c 1.217993,-0.110726 2.380623,-0.276816 3.598616,-0.387543 1.49481,-0.16609 2.71281,-0.276817 3.59862,-0.276817 1.88235,0 2.82353,0.66436 2.82353,2.048443 z"
   id="path3974"
   inkscape:connector-curvature="0"
   style="fill:#ffffff;stroke-width:0.55363321" />
<g
   id="g3980"
   transform="scale(0.55363322)">
	<polygon
   class="st0"
   points="31.1,36.7 41.6,34.8 22.5,54.3 29.9,57.8 53.1,46.4 58.4,20.7 42.8,1.3 32.8,17.7 43.8,15.9 "
   id="polygon3976"
   style="fill:#ffffff" />
	<polygon
   class="st0"
   points="18.9,20.1 26.6,0 15.8,0 0,20.6 6.2,46.4 19.4,52.7 25.3,37.6 17.7,38.9 26.2,18.9 "
   id="polygon3978"
   style="fill:#ffffff" />
</g>
</svg>