<?xml version="1.0" encoding="utf-8"?>
<!-- Generator: Adobe Illustrator 23.0.3, SVG Export Plug-In . SVG Version: 6.00 Build 0)  -->
<svg version="1.1" id="Vrstva_1" xmlns="http://www.w3.org/2000/svg" xmlns:xlink="http://www.w3.org/1999/xlink" x="0px" y="0px"
	 viewBox="0 0 229.9 57.8" style="enable-background:new 0 0 229.9 57.8;" xml:space="preserve">
<style type="text/css">
	.st0{fill:#FFFFFF;}
</style>
<path class="st0" d="M229.8,44.1h-9.4V19.6l-8.7,0.1v24.4h-9.3l0.1-30.3h9.3v1.1c2.2-0.3,4.3-0.5,6.5-0.7c2.7-0.3,4.8-0.5,6.6-0.5
	c3.4,0,5.1,1.2,5.1,3.7L229.8,44.1z M195,44.1h-9.3V43c-2.1,0.3-4.3,0.5-6.5,0.8c-2.6,0.3-4.8,0.4-6.5,0.4c-3.4,0-5.1-1.2-5.1-3.8
	l0.1-26.7h9.2v24.6l8.8-0.1V13.8h9.3V44.1z M164.2,26.5H155v-6.9l-7.4,0.1v24.4h-9.3l0.1-30.3h9.3v1.1c1.9-0.3,3.8-0.5,5.7-0.8
	c2.3-0.3,4.2-0.4,5.8-0.4c3.4,0,5.1,1.2,5.1,3.7L164.2,26.5z M122,26.1v-7.2h-8.7v7.2H122z M130.9,40.3c0,2.5-1.8,3.7-5.3,3.7h-16.1
	c-3.5,0-5.2-1.2-5.2-3.7V17.5c0-2.5,1.8-3.7,5.3-3.7h16.1c3.5,0,5.2,1.2,5.2,3.7v11.1l-2.6,1.9h-15.1V39h8.7v-5h8.9L130.9,40.3z
	 M88.6,25.3V11l-8.7,0.1v16.4h5.8C87.6,27.5,88.6,26.8,88.6,25.3z M98,27.1c0,2.5-1.2,4.2-3.6,5.2c-1.7,0.7-4.4,1.1-7.9,1.1
	c-0.8,0-2,0-3.4-0.1c-1.5,0-2.5-0.1-3.2-0.1v10.9h-9.3l0.1-38.9H80v1.1c2.2-0.2,4.3-0.5,6.5-0.7c2.7-0.3,4.9-0.5,6.5-0.5
	c3.4,0,5.1,1.2,5.1,3.7L98,27.1z"/>
<g>
	<polygon class="st0" points="42.8,1.3 32.8,17.7 43.8,15.9 31.1,36.7 41.6,34.8 22.5,54.3 29.9,57.8 53.1,46.4 58.4,20.7 	"/>
	<polygon class="st0" points="25.3,37.6 17.7,38.9 26.2,18.9 18.9,20.1 26.6,0 15.8,0 0,20.6 6.2,46.4 19.4,52.7 	"/>
</g>
</svg>
