<?xml version="1.0" encoding="utf-8"?>
<!-- Generator: Adobe Illustrator 23.0.3, SVG Export Plug-In . SVG Version: 6.00 Build 0)  -->
<svg version="1.1" xmlns="http://www.w3.org/2000/svg" xmlns:xlink="http://www.w3.org/1999/xlink" x="0px" y="0px"
	 viewBox="0 0 128 128" style="enable-background:new 0 0 128 128;" xml:space="preserve">
<style type="text/css">
	.st0{fill:#ffffff;}
</style>
<g id="Vrstva_2">
	<path class="st0" d="M107,34.6L70.5,15.9c-4.1-2.1-9.2-2.1-13.3,0L20.8,34.6c-4.1,2.1-6.6,6-6.6,10.2v37.3c0,4.2,2.5,8.1,6.6,10.2
		L57.2,111c4.1,2.1,9.2,2.1,13.3,0L107,92.3c4.1-2.1,6.6-6,6.6-10.2V44.8C113.6,40.6,111.1,36.7,107,34.6z M58.5,25.1
		c3.3-1.7,7.4-1.7,10.7,0l29.3,15c0.7,0.4,0.7,1.3,0,1.7l-11.1,5.7L51.1,28.9C55.4,26.7,58.5,25.1,58.5,25.1z M59.1,100.4
		c0,0.7-0.9,1.2-1.6,0.8L29.1,86.7c-3.3-1.7-5.4-4.8-5.4-8.2v-28c0-0.7,0.9-1.2,1.6-0.8l29,14.8c2.9,1.5,4.8,4.3,4.8,7.3V100.4z
		 M59.1,57.1L29.6,42c-0.9-0.4-0.9-1.6,0-2c2.5-1.3,7.1-3.7,12-6.2l36.3,18.6l-9.2,4.7C65.6,58.6,62,58.6,59.1,57.1z M104,78.5
		c0,3.4-2,6.5-5.4,8.2l-28.4,14.5c-0.7,0.4-1.6-0.1-1.6-0.8V71.7c0-3,1.8-5.8,4.8-7.3l9-4.6v13.2c0,1.4,1.7,2.2,3,1.5l5.4-2.8
		c0.7-0.4,1.1-1,1.1-1.8V55l10.4-5.3c0.7-0.4,1.6,0.1,1.6,0.8V78.5z"/>
</g>
<g id="Vrstva_1">
</g>
</svg>
