<?xml version="1.0" encoding="utf-8"?>
<!-- Generator: Adobe Illustrator 23.0.3, SVG Export Plug-In . SVG Version: 6.00 Build 0)  -->
<svg version="1.1" id="Vrstva_1" xmlns="http://www.w3.org/2000/svg" xmlns:xlink="http://www.w3.org/1999/xlink" x="0px" y="0px"
	 viewBox="0 0 128 128" style="enable-background:new 0 0 128 128;" xml:space="preserve">
<style type="text/css">
	.st0{fill:#ffffff;}
</style>
<path class="st0" d="M93.1,48.3h-9.6V34.2l10-9.8c0.4-0.3,0.1-0.9-0.4-0.9h-9.5l0-4c0-0.9-0.5-1.7-1.3-2.1
	c-17.9-8.6-32.2-2.4-36.3-0.1c-0.8,0.4-1.3,1.2-1.3,2.1v4.3h-9.4c-0.5,0-0.7,0.6-0.4,0.9l9.6,9.2v14.7h-9.2c-0.5,0-0.7,0.6-0.4,0.9
	l9.9,9.4v14.4h-9.5c-0.5,0-0.7,0.6-0.4,0.9l9.9,10.1v15.5c0,1,0.8,1.8,1.8,1.8h12.1v13.5h11.2l0-13.7h12c1,0,1.8-0.8,1.8-1.8V83.9
	l10-10c0.3-0.3,0.1-0.9-0.4-0.9h-9.6V58.9l10-9.7C93.8,48.9,93.6,48.3,93.1,48.3z M65.8,92.5c-5.7,1.1-10.7-3.9-9.6-9.6
	c0.6-3.2,3.2-5.8,6.4-6.4c5.7-1.1,10.7,3.8,9.6,9.6C71.6,89.3,69,91.9,65.8,92.5z M65.8,67.3c-5.7,1.1-10.7-3.9-9.6-9.6
	c0.6-3.2,3.2-5.8,6.4-6.4c5.7-1.1,10.7,3.9,9.6,9.6C71.6,64.1,69,66.7,65.8,67.3z M65.8,42.2c-5.7,1.1-10.7-3.8-9.6-9.6
	c0.6-3.2,3.2-5.8,6.4-6.4c5.7-1.1,10.7,3.8,9.6,9.6C71.6,39,69,41.6,65.8,42.2z"/>
</svg>
