<?xml version="1.0" encoding="utf-8"?>
<!-- Generator: Adobe Illustrator 23.0.3, SVG Export Plug-In . SVG Version: 6.00 Build 0)  -->
<svg version="1.1" xmlns="http://www.w3.org/2000/svg" xmlns:xlink="http://www.w3.org/1999/xlink" x="0px" y="0px"
	 viewBox="0 0 128 128" style="enable-background:new 0 0 128 128;" xml:space="preserve">
<style type="text/css">
	.st0{fill:#858585;}
</style>
<g id="Vrstva_2">
	<path class="st0" d="M107.1,34.8L70.6,16.2c-4.1-2.1-9.2-2.1-13.3,0L20.9,34.8c-4.1,2.1-6.6,6-6.6,10.2v37.3
		c0,4.2,2.5,8.1,6.6,10.2l36.5,18.7c4.1,2.1,9.2,2.1,13.3,0l36.5-18.7c4.1-2.1,6.6-6,6.6-10.2V45C113.8,40.8,111.2,36.9,107.1,34.8z
		 M58.6,25.3c3.3-1.7,7.4-1.7,10.7,0l29.3,15c0.7,0.4,0.7,1.3,0,1.7l-11.1,5.7L51.2,29.2C55.5,27,58.6,25.3,58.6,25.3z M59.2,100.7
		c0,0.7-0.9,1.2-1.6,0.8L29.2,87c-3.3-1.7-5.4-4.8-5.4-8.2v-28c0-0.7,0.9-1.2,1.6-0.8l29,14.8c2.9,1.5,4.8,4.3,4.8,7.3V100.7z
		 M59.2,57.4L29.7,42.3c-0.9-0.4-0.9-1.6,0-2c2.5-1.3,7.1-3.7,12-6.2L78,52.7l-9.2,4.7C65.8,58.9,62.2,58.9,59.2,57.4z M104.2,78.8
		c0,3.4-2,6.5-5.4,8.2l-28.4,14.5c-0.7,0.4-1.6-0.1-1.6-0.8V72c0-3,1.8-5.8,4.8-7.3l9-4.6v13.2c0,1.4,1.7,2.2,3,1.5l5.4-2.8
		c0.7-0.4,1.1-1,1.1-1.8V55.2l10.4-5.3c0.7-0.4,1.6,0.1,1.6,0.8V78.8z"/>
</g>
<g id="Vrstva_1">
</g>
</svg>
