<?xml version="1.0" encoding="utf-8"?>
<!-- Generator: Adobe Illustrator 23.0.3, SVG Export Plug-In . SVG Version: 6.00 Build 0)  -->
<svg version="1.1" id="Vrstva_1" xmlns="http://www.w3.org/2000/svg" xmlns:xlink="http://www.w3.org/1999/xlink" x="0px" y="0px"
	 viewBox="0 0 128 128" style="enable-background:new 0 0 128 128;" xml:space="preserve">
<style type="text/css">
	.st0{fill:#1A5D91;}
</style>
<g>
	<path class="st0" d="M90,21.9H40.7c-4.1,0-7.4,3.3-7.4,7.4v0.4c-2.4,0.2-4.4,2.3-4.4,4.8V40c0,2.5,1.9,4.6,4.4,4.8v10.5
		c-2.4,0.2-4.4,2.3-4.4,4.8v5.5c0,2.5,1.9,4.6,4.4,4.8V81c-2.4,0.2-4.4,2.3-4.4,4.8v5.5c0,2.5,1.9,4.6,4.4,4.8v0.4
		c0,4.1,3.3,7.4,7.4,7.4H90c4.1,0,7.4-3.3,7.4-7.4V29.3C97.4,25.2,94.1,21.9,90,21.9z M89.6,94c0,1.2-1,2.2-2.2,2.2h-44
		c-1.2,0-2.2-1-2.2-2.2V31.9c0-1.2,1-2.2,2.2-2.2h44c1.2,0,2.2,1,2.2,2.2V94z"/>
	<rect x="48.9" y="37" class="st0" width="32.8" height="7.8"/>
</g>
</svg>
