<?xml version="1.0" encoding="utf-8"?>
<!-- Generator: Adobe Illustrator 23.0.3, SVG Export Plug-In . SVG Version: 6.00 Build 0)  -->
<svg version="1.1" id="Vrstva_1" xmlns="http://www.w3.org/2000/svg" xmlns:xlink="http://www.w3.org/1999/xlink" x="0px" y="0px"
	 viewBox="0 0 128 128" style="enable-background:new 0 0 128 128;" xml:space="preserve">
<style type="text/css">
	.st0{fill:#1A5D91;}
</style>
<path class="st0" d="M64.1,77.8l17.4,17.4c1.7,1.7,4.6,1.7,6.3,0l7.8-7.8c1.7-1.7,1.7-4.6,0-6.3L78.3,63.7l17.4-17.4
	c1.7-1.7,1.7-4.6,0-6.3l-7.8-7.8c-1.7-1.7-4.6-1.7-6.3,0L64.1,49.6L46.6,32c-1.7-1.7-4.4-1.7-6.1,0L32.6,40c-1.7,1.7-1.7,4.6,0,6.3
	L50,63.7L32.6,81.1c-1.7,1.7-1.7,4.6,0,6.3l7.8,7.8c1.7,1.7,4.6,1.7,6.3,0L64.1,77.8z"/>
</svg>
