<?xml version="1.0" encoding="utf-8"?>
<!-- Generator: Adobe Illustrator 23.0.3, SVG Export Plug-In . SVG Version: 6.00 Build 0)  -->
<svg version="1.1" id="Vrstva_2" xmlns="http://www.w3.org/2000/svg" xmlns:xlink="http://www.w3.org/1999/xlink" x="0px" y="0px"
	 viewBox="0 0 128 128" style="enable-background:new 0 0 128 128;" xml:space="preserve">
<style type="text/css">
	.st0{fill:#858585;}
</style>
<path class="st0" d="M64,13.1c-28.1,0-50.8,22.7-50.8,50.8c0,28.1,22.7,50.8,50.8,50.8c28.1,0,50.8-22.7,50.8-50.8
	C114.8,35.8,92.1,13.1,64,13.1z M64,26.2c7.8,0,15.1,2.4,21.1,6.5L32.8,85c-4.1-6-6.5-13.3-6.5-21.1C26.3,43.1,43.2,26.2,64,26.2z
	 M64,101.6c-7.8,0-15.1-2.4-21.1-6.5l52.3-52.3c4.1,6,6.5,13.3,6.5,21.1C101.7,84.7,84.8,101.6,64,101.6z"/>
</svg>
