<?xml version="1.0" encoding="utf-8"?>
<!-- Generator: Adobe Illustrator 23.0.3, SVG Export Plug-In . SVG Version: 6.00 Build 0)  -->
<svg version="1.1" id="Vrstva_1" xmlns="http://www.w3.org/2000/svg" xmlns:xlink="http://www.w3.org/1999/xlink" x="0px" y="0px"
	 viewBox="0 0 128 128" style="enable-background:new 0 0 128 128;" xml:space="preserve">
<style type="text/css">
	.st0{fill:#ffffff;}
</style>
<path class="st0" d="M78.6,70.3C88.4,65,95,54.5,94.8,42.6c-0.2-16.2-13.5-29.9-29.8-30.5C47.4,11.4,32.9,25.5,32.9,43
	c0,11.8,6.6,22,16.2,27.2c-18.5,5.9-32.2,22.6-33.9,42.7h9.7C26.7,96,39,82.3,55.2,78.6l6.4,7.8c0.6,0.7,0.8,1.7,0.5,2.7l-6.7,21
	c-0.6,1.7-0.1,3.6,1.1,4.9l4.8,5c1.5,1.5,3.9,1.5,5.4,0l4.9-5c1.3-1.3,1.8-3.2,1.2-5l-6.8-21c-0.3-0.9-0.1-1.9,0.5-2.6l6.2-7.8
	c16.2,3.7,28.5,17.4,30.3,34.3h9.7C110.9,92.8,97.2,76.2,78.6,70.3z M68.2,64.5c-15.4,2.9-28.7-10.3-25.8-25.8
	C44,30.1,51,23.2,59.6,21.6C75,18.6,88.3,31.9,85.4,47.3C83.7,55.9,76.8,62.9,68.2,64.5z"/>
</svg>
