<?xml version="1.0" encoding="utf-8"?>
<!-- Generator: Adobe Illustrator 23.0.3, SVG Export Plug-In . SVG Version: 6.00 Build 0)  -->
<svg version="1.1" id="Vrstva_1" xmlns="http://www.w3.org/2000/svg" xmlns:xlink="http://www.w3.org/1999/xlink" x="0px" y="0px"
	 viewBox="0 0 128 128" style="enable-background:new 0 0 128 128;" xml:space="preserve">
<style type="text/css">
	.st0{fill:#1A5D91;}
</style>
<g>
	<g>
		<path class="st0" d="M33.8,49.5c-2.2,0.7-2.3,0.7-2.2,3.5c0,0,0,0,0,0.1c0.1,0.7,0.4,1.2,1.1,1.4c0.8,0.3,1.6,0.6,2.4,0.9
			c1.3,0.6,2.2,2.7,1.8,4c-0.3,0.9-0.7,1.7-1.1,2.6c-0.3,0.7-0.2,1.2,0.3,1.8c0.4,0.4,0.7,0.7,1.1,1.1c0.6,0.6,1.1,0.7,1.9,0.3
			c0.6-0.3,1.2-0.6,1.8-0.8c0.7-0.3,1.3-0.4,2.1-0.3c1.8,0.4,2.8,1.4,3.3,3.1c0.7,2.3,0.9,2.3,3.4,2.3c0.9,0,1.3-0.4,1.6-1.2
			c0.3-0.8,0.6-1.6,0.9-2.3c0.6-1.3,2.6-2.2,4-1.8c0.9,0.3,1.7,0.7,2.6,1.1c0.7,0.3,1.3,0.2,1.8-0.3c0.4-0.3,0.7-0.7,1-1
			c0.6-0.6,0.7-1.1,0.3-2c-0.3-0.7-0.7-1.4-0.9-2.1c-0.2-0.5-0.2-1.1-0.1-1.7c0.3-1.7,1.4-2.7,3-3.2c2.3-0.7,2.4-0.7,2.3-3.4
			c0-0.9-0.4-1.3-1.2-1.6c-0.7-0.3-1.4-0.5-2.1-0.8c-1.7-0.6-2.7-3.2-1.9-4.7c0.3-0.7,0.6-1.3,0.9-2c0.1-0.3,0.2-0.5,0.3-0.9
			c-0.2-0.3-0.3-0.7-0.6-1c-0.3-0.4-0.7-0.8-1.1-1.1c-0.6-0.5-1.1-0.6-1.8-0.3c-0.7,0.3-1.4,0.7-2.1,0.9c-0.4,0.2-0.9,0.3-1.4,0.2
			c-1.9-0.2-3.1-1.3-3.7-3.2c-0.7-2.2-0.7-2.3-3.5-2.2c0,0,0,0-0.1,0c-0.7,0.1-1.2,0.4-1.4,1.1c-0.3,0.8-0.5,1.6-0.9,2.3
			c-0.7,1.4-2.7,2.3-4.1,1.8c-0.9-0.3-1.7-0.7-2.6-1.1c-0.7-0.3-1.2-0.2-1.8,0.3c-0.4,0.4-0.8,0.8-1.1,1.1c-0.5,0.5-0.6,1.1-0.3,1.8
			c0.3,0.6,0.6,1.1,0.8,1.8c0.2,0.6,0.4,1.2,0.4,1.8C36.8,47.8,35.7,49,33.8,49.5z M49,43.5c4.7,0,8.6,3.9,8.7,8.6
			c0,4.8-3.9,8.7-8.7,8.8c-4.7,0-8.7-3.9-8.7-8.7C40.3,47.4,44.2,43.5,49,43.5z"/>
		<path class="st0" d="M62.6,68.3c-2.2,0.7-2.3,0.7-2.2,3.5c0,0,0,0,0,0.1c0.1,0.7,0.4,1.2,1.1,1.4c0.8,0.3,1.6,0.6,2.4,0.9
			c1.3,0.6,2.2,2.7,1.8,4c-0.3,0.9-0.7,1.7-1.1,2.6c-0.3,0.7-0.2,1.2,0.3,1.8c0.4,0.4,0.7,0.7,1.1,1.1c0.6,0.6,1.1,0.7,1.9,0.3
			c0.6-0.3,1.2-0.6,1.8-0.8c0.7-0.3,1.3-0.4,2.1-0.3c1.8,0.4,2.8,1.4,3.3,3.1c0.7,2.3,0.9,2.3,3.4,2.3c0.9,0,1.3-0.4,1.6-1.2
			c0.3-0.8,0.6-1.6,0.9-2.3c0.6-1.3,2.6-2.2,4-1.8c0.9,0.3,1.7,0.7,2.6,1.1c0.7,0.3,1.3,0.2,1.8-0.3c0.4-0.3,0.7-0.7,1-1
			c0.6-0.6,0.7-1.1,0.3-2c-0.3-0.7-0.7-1.4-0.9-2.1c-0.2-0.5-0.2-1.1-0.1-1.7c0.3-1.7,1.4-2.7,3-3.2c2.3-0.7,2.4-0.7,2.3-3.4
			c0-0.9-0.4-1.3-1.2-1.6c-0.7-0.3-1.4-0.5-2.1-0.8c-1.7-0.6-2.7-3.2-1.9-4.7c0.3-0.7,0.6-1.3,0.9-2c0.1-0.3,0.2-0.5,0.3-0.9
			c-0.2-0.3-0.3-0.7-0.6-1c-0.3-0.4-0.7-0.8-1.1-1.1c-0.6-0.5-1.1-0.6-1.8-0.3c-0.7,0.3-1.4,0.7-2.1,0.9c-0.4,0.2-0.9,0.3-1.4,0.2
			c-1.9-0.2-3.1-1.3-3.7-3.2c-0.7-2.2-0.7-2.3-3.5-2.2c0,0,0,0-0.1,0c-0.7,0.1-1.2,0.4-1.4,1.1c-0.3,0.8-0.5,1.6-0.9,2.3
			c-0.7,1.4-2.7,2.3-4.1,1.8c-0.9-0.3-1.7-0.7-2.6-1.1c-0.7-0.3-1.2-0.2-1.8,0.3c-0.4,0.4-0.8,0.8-1.1,1.1c-0.5,0.5-0.6,1.1-0.3,1.8
			c0.3,0.6,0.6,1.1,0.8,1.8c0.2,0.6,0.4,1.2,0.4,1.8C65.6,66.5,64.5,67.7,62.6,68.3z M77.8,62.3c4.7,0,8.6,3.9,8.7,8.6
			c0,4.8-3.9,8.7-8.7,8.8c-4.7,0-8.7-3.9-8.7-8.7C69.1,66.2,73,62.3,77.8,62.3z"/>
	</g>
	<path class="st0" d="M70,101.5c-10.7,0-21.4,0-32.1,0c-3,0-5.9,0-8.9-0.1c-6.8-0.4-12.7-2.9-17.6-7.9c-3.2-3.3-5.1-7.2-6.1-11.6
		c-1-4.8-0.7-9.4,1.1-13.9c2-5,5.6-8.5,10.3-11c0.7-0.4,1.5-0.7,2.3-1c0.3-0.1,0.3-0.2,0.3-0.5c-0.9-8.1,1.2-15.3,6.2-21.7
		c4.3-5.5,9.9-9.1,16.8-10.5c9.9-2,18.6,0.3,26.2,7c2.4,2.1,4.4,4.6,5.9,7.4c0.2,0.4,0.5,0.3,0.7,0.3c1.9-0.3,3.8-0.4,5.7-0.3
		c6.7,0.3,12.3,3.1,16.6,8.2c1.7,2,3,4.3,4.1,6.7c0.1,0.3,0.4,0.6,0.7,0.7c3.9,2.6,6.6,6.2,7.9,10.7c0.1,0.4,0.3,0.5,0.6,0.7
		c3.7,1.4,6.9,3.5,9.3,6.6c1.9,2.5,3.1,5.3,3.6,8.4c0.6,3.6,0.3,7-1.2,10.3c-2.2,4.8-5.8,8-10.7,9.8c-2.8,1-5.6,1.5-8.6,1.5
		C92.1,101.5,81.1,101.5,70,101.5C70,101.5,70,101.5,70,101.5z M66.4,93.5c12,0,24,0,36,0c1.9,0,3.7-0.2,5.5-0.7
		c2.1-0.6,4-1.5,5.5-3.2c1.9-2.2,2.9-4.7,2.6-7.6c-0.2-2.2-0.8-4.1-2.2-5.8c-1.9-2.3-4.4-3.7-7.3-4.4c-2-0.5-3.2-1.7-3.5-3.7
		c-0.6-3.8-2.6-6.7-6-8.5c-1-0.5-1.6-1.4-2.1-2.4c-0.8-1.6-1.5-3.2-2.5-4.6c-3.7-5.4-8.9-7.3-15.2-6.6c-1.4,0.2-2.9,0.5-4.3,0.7
		c-1.4,0.2-2.6-0.2-3.5-1.4c-0.3-0.4-0.6-0.9-0.8-1.4c-1.5-3.4-3.7-6.3-6.7-8.6c-5.2-3.9-11-5.3-17.4-4.1c-4.7,0.9-8.6,3.1-11.7,6.7
		c-5,5.6-6.5,12.1-5.1,19.3c0.2,0.8,0.2,1.6,0.1,2.4c-0.3,1.8-1.6,2.6-3.2,3.1c-1,0.3-2.1,0.7-3.1,1.1c-2.6,1.1-4.9,2.8-6.5,5.3
		c-2.1,3.3-2.6,6.8-2,10.6c0.8,4.8,3.1,8.6,7.3,11.1c3.1,1.8,6.4,3,10.1,3c7.5,0,15,0,22.5,0C57.4,93.5,61.9,93.5,66.4,93.5z"/>
</g>
</svg>
