<?xml version="1.0" encoding="utf-8"?>
<!-- Generator: Adobe Illustrator 23.0.3, SVG Export Plug-In . SVG Version: 6.00 Build 0)  -->
<svg version="1.1" id="Vrstva_1" xmlns="http://www.w3.org/2000/svg" xmlns:xlink="http://www.w3.org/1999/xlink" x="0px" y="0px"
	 viewBox="0 0 128 128" style="enable-background:new 0 0 128 128;" xml:space="preserve">
<style type="text/css">
	.st0{fill:#ffffff;}
</style>
<path class="st0" d="M89.6,43L67.8,30.4c-2.5-1.4-5.5-1.4-7.9,0L38.1,43c-2.5,1.4-4,4-4,6.9V75c0,2.8,1.5,5.5,4,6.9l21.8,12.6
	c2.5,1.4,5.5,1.4,7.9,0l21.8-12.6c2.5-1.4,4-4,4-6.9V49.9C93.6,47,92.1,44.4,89.6,43z M61,58.2L43.4,48c-0.5-0.3-0.5-1.1,0-1.4
	c4.1-2.4,17.3-10.1,17.3-10.1c2-1.1,4.4-1.1,6.4,0l17.5,10.1c0.4,0.3,0.4,0.9,0,1.1L66.7,58.2C64.9,59.2,62.7,59.2,61,58.2z
	 M87.9,72.6c0,2.3-1.2,4.4-3.2,5.6l-17,9.8c-0.4,0.3-1-0.1-1-0.6V68.1c0-2,1.1-3.9,2.8-4.9l17.3-10c0.4-0.3,1,0.1,1,0.6V72.6z"/>
</svg>
