<?xml version="1.0" encoding="utf-8"?>
<!-- Generator: Adobe Illustrator 23.0.3, SVG Export Plug-In . SVG Version: 6.00 Build 0)  -->
<svg version="1.1" id="Vrstva_1" xmlns="http://www.w3.org/2000/svg" xmlns:xlink="http://www.w3.org/1999/xlink" x="0px" y="0px"
	 viewBox="0 0 128 128" style="enable-background:new 0 0 128 128;" xml:space="preserve">
<style type="text/css">
	.st0{fill:#ffffff;}
</style>
<path class="st0" d="M110.3,75.5L90.8,64.2l-4.6-2.8L80,57.8l6.2-3.6c2.2-1.3,3.6-3.6,3.6-6.2V25.4c0-2.6-1.4-4.9-3.6-6.2L66.6,7.9
	c-2.2-1.3-4.9-1.3-7.1,0L39.8,19.3c-2.2,1.3-3.6,3.6-3.6,6.2v22.6c0,2.6,1.4,4.9,3.6,6.2l6.2,3.6l-6.2,3.6l-4.6,2.8L15.6,75.5
	c-2.2,1.3-3.6,3.6-3.6,6.2v22.6c0,2.6,1.4,4.9,3.6,6.2l19.6,11.3c2.2,1.3,4.9,1.3,7.1,0L62,110.5c0.4-0.2,0.7-0.4,1-0.7
	c0.3,0.3,0.6,0.5,1,0.7l19.6,11.3c2.2,1.3,4.9,1.3,7.1,0l19.6-11.3c2.2-1.3,3.6-3.6,3.6-6.2V81.7C113.9,79.1,112.6,76.8,110.3,75.5z
	 M84.6,28.9v17c0,2.1-1.1,4-2.9,5l-15.2,8.8c-0.4,0.2-0.9-0.1-0.9-0.5V41.8c0-1.8,1-3.5,2.6-4.4l15.6-9
	C84.1,28.2,84.6,28.4,84.6,28.9z M44.6,22.5c3.7-2.1,15.5-9.1,15.5-9.1c1.8-1,4-1,5.8,0l15.8,9.1c0.4,0.2,0.4,0.8,0,1l-16.1,9.3
	c-1.6,0.9-3.5,0.9-5.1,0l-15.8-9.1C44.1,23.5,44.1,22.8,44.6,22.5z M36.2,89.2L20.4,80c-0.5-0.3-0.5-1,0-1.2
	c3.7-2.1,15.5-9.1,15.5-9.1c1.8-1,4-1,5.8,0l15.8,9.1c0.4,0.2,0.4,0.8,0,1l-16.1,9.3C39.8,90.1,37.8,90.1,36.2,89.2z M60.4,102.1
	c0,2.1-1.1,4-2.9,5L42.3,116c-0.4,0.2-0.9-0.1-0.9-0.5V98.1c0-1.8,1-3.5,2.6-4.4l15.6-9c0.4-0.2,0.9,0.1,0.9,0.5V102.1z M61.7,75.3
	l-17-9.8c0,0-0.8-0.4,0-0.9c1.4-0.8,3.9-2.3,6.5-3.8l8.2,4.8c2.2,1.3,4.9,1.3,7.1,0l8.3-4.8l6.6,3.8c0,0,0.7,0.4,0,0.8l-16.9,9.8
	C63.2,75.9,62.2,75.6,61.7,75.3z M84.6,89.2L68.7,80c-0.5-0.3-0.5-1,0-1.2c3.7-2.1,15.5-9.1,15.5-9.1c1.8-1,4-1,5.8,0l15.8,9.1
	c0.4,0.2,0.4,0.8,0,1l-16.1,9.3C88.1,90.1,86.2,90.1,84.6,89.2z M108.8,102.1c0,2.1-1.1,4-2.9,5L90.6,116c-0.4,0.2-0.9-0.1-0.9-0.5
	V98.1c0-1.8,1-3.5,2.6-4.4l15.6-9c0.4-0.2,0.9,0.1,0.9,0.5V102.1z"/>
</svg>
