<?xml version="1.0" encoding="utf-8"?>
<!-- Generator: Adobe Illustrator 23.0.3, SVG Export Plug-In . SVG Version: 6.00 Build 0)  -->
<svg version="1.1" id="Vrstva_1" xmlns="http://www.w3.org/2000/svg" xmlns:xlink="http://www.w3.org/1999/xlink" x="0px" y="0px"
	 viewBox="0 0 128 128" style="enable-background:new 0 0 128 128;" xml:space="preserve">
<style type="text/css">
	.st0{fill:#1A5D91;}
</style>
<g>
	<path class="st0" d="M64,13.2C36,13.2,13.3,36,13.3,64S36,114.8,64,114.8S114.8,92,114.8,64S92.1,13.2,64,13.2z M64,105.3
		c-22.8,0-41.3-18.5-41.3-41.3S41.2,22.7,64,22.7c22.8,0,41.3,18.5,41.3,41.3S86.9,105.3,64,105.3z"/>
	<path class="st0" d="M76.6,95.5H52.9c-1.1,0-2-0.4-2.7-1.1c-0.8-0.8-1.1-1.7-1.1-2.8c0-1,0.4-2,1.1-2.7c0.8-0.8,1.7-1.2,2.7-1.2
		h7.9v-29H53c-1.1,0-2-0.4-2.7-1.2s-1.1-1.7-1.1-2.7c0-1.1,0.4-2,1.1-2.8c0.8-0.8,1.7-1.2,2.7-1.2h11.8c1.1,0,2,0.4,2.7,1.2
		c0.8,0.8,1.1,1.7,1.1,2.8v32.9h7.8c1.1,0,2,0.4,2.8,1.1c0.8,0.8,1.2,1.7,1.2,2.8s-0.4,2-1.2,2.8S77.6,95.5,76.6,95.5z M60.8,30.7
		h4.1c1.1,0,2,0.4,2.7,1.1c0.8,0.8,1.1,1.7,1.1,2.7V38c0,1.1-0.4,2-1.1,2.8c-0.8,0.8-1.7,1.2-2.7,1.2h-4.2c-1.1,0-2-0.4-2.8-1.2
		c-0.8-0.8-1.1-1.7-1.1-2.7l0.1-3.4c0-1.1,0.4-2,1.1-2.7C58.8,31.1,59.7,30.7,60.8,30.7z"/>
</g>
</svg>
