<?xml version="1.0" encoding="utf-8"?>
<!-- Generator: Adobe Illustrator 23.0.3, SVG Export Plug-In . SVG Version: 6.00 Build 0)  -->
<svg version="1.1" id="Vrstva_1" xmlns="http://www.w3.org/2000/svg" xmlns:xlink="http://www.w3.org/1999/xlink" x="0px" y="0px"
	 viewBox="0 0 128 128" style="enable-background:new 0 0 128 128;" xml:space="preserve">
<style type="text/css">
	.st0{fill:#ffffff;}
</style>
<g>
	<path class="st0" d="M94.4,20.2H83.2V9.8c0-3.3-2.7-6-6-6H50.2c-3.3,0-6,2.7-6,6v10.4H31.6c-7.6,0-13.7,6.1-13.7,13.7v1.4
		c0,0.7,0.6,1.3,1.3,1.3h89c0.7,0,1.3-0.6,1.3-1.3v0C109.6,27,102.8,20.2,94.4,20.2z M76,20.2H51.5v-8c0-0.9,0.8-1.7,1.7-1.7h21
		c0.9,0,1.7,0.8,1.7,1.7V20.2z"/>
	<path class="st0" d="M72,60.7c-2.2,0-4,1.8-4,4v11.6v2.9v24.4c0,2.2,1.8,4,4,4c2.2,0,4-1.8,4-4V79.1v-2.9V64.7
		C76,62.5,74.2,60.7,72,60.7z"/>
	<path class="st0" d="M55.1,60.7c-2.2,0-4,1.8-4,4v11.6v2.9v24.4c0,2.2,1.8,4,4,4c2.2,0,4-1.8,4-4V79.1v-2.9V64.7
		C59.1,62.5,57.4,60.7,55.1,60.7z"/>
	<path class="st0" d="M88.9,60.7c-2.2,0-4,1.8-4,4v11.6v2.9v16.8c0,2.2,1.8,4,4,4c2.2,0,4-1.8,4-4V79.1v-2.9V64.7
		C92.8,62.5,91.1,60.7,88.9,60.7z"/>
	<path class="st0" d="M38.3,60.7c-2.2,0-4,1.8-4,4v11.6v2.9v16.8c0,2.2,1.8,4,4,4c2.2,0,4-1.8,4-4V79.1v-2.9V64.7
		C42.3,62.5,40.5,60.7,38.3,60.7z"/>
	<path class="st0" d="M102.9,44.3H24.5c-3.6,0-6.5,2.5-6.5,5.7v1.6V55v44.5c0,13.8,12.8,25,28.5,25h35.2c15.2,0,27.6-10.9,27.6-24.2
		V55v-3.4V50C109.4,46.9,106.5,44.3,102.9,44.3z M101.4,98.9c0,9.8-9,17.7-20.1,17.7H46.9c-11.5,0-20.9-8.2-20.9-18.3V55.1
		c0.3-1.6,1.6-1.9,2.9-1.9h69.6c1.8,0,2.7,0.7,2.9,1.9V98.9z"/>
</g>
</svg>
