<?xml version="1.0" encoding="utf-8"?>
<!-- Generator: Adobe Illustrator 23.0.3, SVG Export Plug-In . SVG Version: 6.00 Build 0)  -->
<svg version="1.1" id="Vrstva_1" xmlns="http://www.w3.org/2000/svg" xmlns:xlink="http://www.w3.org/1999/xlink" x="0px" y="0px"
	 viewBox="0 0 128 128" style="enable-background:new 0 0 128 128;" xml:space="preserve">
<style type="text/css">
	.st0{fill:#ffffff;}
</style>
<g>
	<path class="st0" d="M40.9,68.2c5-3,8.4-8.4,8.4-14.6c0-9.4-7.6-17-17-17s-17,7.6-17,17c0,6.2,3.4,11.7,8.4,14.6
		c-9,3.5-15.4,12.2-15.4,22.4h7c0-9.4,7.6-17,17-17c9.4,0,17,7.6,17,17h7C56.3,80.4,49.9,71.7,40.9,68.2z M32.3,43.6
		c5.5,0,9.9,4.4,9.9,9.9s-4.4,9.9-9.9,9.9s-9.9-4.4-9.9-9.9S26.8,43.6,32.3,43.6z"/>
	<path class="st0" d="M115.8,36.5H87.5c-2.8,0-5,2.2-5,5v44.1c0,2.8,2.2,5,5,5h28.3c2.8,0,5-2.2,5-5V41.5
		C120.8,38.7,118.6,36.5,115.8,36.5z M113.8,81.2c0,1.2-1,2.2-2.2,2.2H91.8c-1.2,0-2.2-1-2.2-2.2V45.8c0-1.2,1-2.2,2.2-2.2h19.7
		c1.2,0,2.2,1,2.2,2.2V81.2z"/>
	<rect x="94.2" y="48.3" class="st0" width="14.9" height="5.3"/>
	<polygon class="st0" points="65.9,54.8 65.9,54.9 65.9,63.5 52.6,63.5 52.6,70.6 65.9,70.6 65.9,79.4 65.9,79.4 78.2,67.1 
		77.4,66.3 	"/>
</g>
</svg>
