<?xml version="1.0" encoding="utf-8"?>
<!-- Generator: Adobe Illustrator 23.0.3, SVG Export Plug-In . SVG Version: 6.00 Build 0)  -->
<svg version="1.1" id="Vrstva_1" xmlns="http://www.w3.org/2000/svg" xmlns:xlink="http://www.w3.org/1999/xlink" x="0px" y="0px"
	 viewBox="0 0 128 128" style="enable-background:new 0 0 128 128;" xml:space="preserve">
<style type="text/css">
	.st0{fill:#ffffff;}
</style>
<g>
	<path class="st0" d="M118,96.1L72.5,20c-3.9-6.5-12.8-6.5-16.7,0L10.3,96.1C6.2,103,10.9,112,18.7,112h91
		C117.4,112,122.1,103,118,96.1z M107.7,103.3H20.8c-2,0-3.3-2.2-2.2-4l43.4-72.6c1-1.7,3.5-1.7,4.5,0l43.5,72.6
		C110.9,101.1,109.7,103.3,107.7,103.3z"/>
	<path class="st0" d="M62.4,85.9h3.4c1,0,1.9,0.4,2.6,1.1c0.7,0.7,1.1,1.6,1.1,2.5v3.2c0,1-0.4,1.9-1,2.6c-0.7,0.7-1.6,1-2.6,1h-3.6
		c-1,0-1.9-0.4-2.6-1c-0.7-0.7-1-1.6-1-2.6v-3.1c0-1,0.4-1.9,1.1-2.6C60.6,86.3,61.4,85.9,62.4,85.9z M69.6,46.8l-1.8,27.9
		c-0.1,1-0.5,1.9-1.2,2.6c-0.7,0.7-1.5,1-2.4,1c-1.1,0-1.9-0.4-2.6-1.1c-0.7-0.7-1-1.6-1.1-2.5l-1.8-28c-0.1-1,0.3-1.8,1-2.5
		c0.7-0.7,1.6-1.1,2.6-1.1H66c1,0,1.9,0.4,2.6,1.1C69.3,45,69.7,45.8,69.6,46.8z"/>
</g>
</svg>
